<?xml version="1.0" standalone="no"?><!DOCTYPE svg PUBLIC "-//W3C//DTD SVG 1.1//EN" "http://www.w3.org/Graphics/SVG/1.1/DTD/svg11.dtd"><svg t="1709541859192" class="icon" viewBox="0 0 1024 1024" version="1.1" xmlns="http://www.w3.org/2000/svg" p-id="10870" data-spm-anchor-id="a313x.search_index.0.i5.76903a81lBKuqT" xmlns:xlink="http://www.w3.org/1999/xlink" width="200" height="200"><path d="M632.64 330.944l-241.28 241.408a42.688 42.688 0 1 0 60.288 60.288l241.408-241.28a128 128 0 0 0-181.12-181.056L270.72 451.648a213.312 213.312 0 1 0 301.696 301.696L813.632 512l60.416 60.352-241.408 241.344a298.688 298.688 0 1 1-422.4-422.4l241.408-241.28a213.312 213.312 0 0 1 301.696 301.632L512 693.056A128 128 0 1 1 330.88 512l241.408-241.344 60.288 60.288z" fill="#4873C1" p-id="10871"></path></svg>